<svg xmlns="http://www.w3.org/2000/svg" version="1.1" width="75" height="70" transform="scale(0.9)" style="overflow: hidden; background: transparent; border: none;"><defs><clipPath clip-rule="nonzero" id="two-16216"><path transform="matrix(1 0 0 1 -30 97.75)" d="M 80 0 C 80 44.182779 44.182779 80 0 80 C -44.18278 80 -80 44.182779 -80 0 C -80.000001 -44.18278 -44.18278 -80 -0.000001 -80 C 44.182779 -80.000001 80 -44.18278 80 0 Z " fill="transparent" stroke="#546a90" stroke-width="8" stroke-opacity="1" fill-opacity="1" visibility="visible" stroke-linecap="butt" stroke-linejoin="miter" stroke-miterlimit="4"></path></clipPath></defs><g id="two-16213" transform="matrix(1 0 0 1 0 0)" opacity="1"><g id="two-16218" transform="matrix(0.349999 0 0 0.349999 40 0)" opacity="1"><path transform="matrix(1 0 0 1 -4 97.75)" id="two-16217" d="M 90 0 C 90 49.705627 49.705627 90 0 90 C -49.705628 90 -90 49.705627 -90 0 C -90.000001 -49.705628 -49.705628 -90 -0.000001 -90 C 49.705627 -90.000001 90 -49.705628 90 0 Z " fill="#f5f2dd" stroke="#546a90" stroke-width="8" stroke-opacity="1" fill-opacity="1" visibility="visible" stroke-linecap="butt" stroke-linejoin="miter" stroke-miterlimit="4"></path><g id="two-16215" transform="matrix(1 0 0 1 0 0)" opacity="1" clip-path="url(#two-16216)"><path transform="matrix(1 0 0 1 0 97.75)" id="two-16214" d="M 120 0 C 120 66.274169 66.274169 120 0 120 C -66.27417 120 -120 66.274169 -120 0 C -120.000001 -66.27417 -66.27417 -120 -0.000001 -120 C 66.274169 -120.000001 120 -66.27417 120 0 Z " fill="#546a90" stroke="#f5f2dd" stroke-width="8" stroke-opacity="1" fill-opacity="1" visibility="visible" stroke-linecap="butt" stroke-linejoin="miter" stroke-miterlimit="4"></path></g></g></g></svg>
